HIERARCHY
ROOT SimulationBone
{
	OFFSET 0.000000 0.000000 0.000000
	CHANNELS 6 Xposition Yposition Zposition Zrotation Yrotation Xrotation 
	JOINT Hips
	{
		OFFSET 0.000000 0.000000 0.000000
		CHANNELS 6 Xposition Yposition Zposition Zrotation Yrotation Xrotation 
		JOINT RightUpLeg
		{
			OFFSET 0.103454 1.857841 10.548502
			CHANNELS 3 Zrotation Yrotation Xrotation
			JOINT RightLeg
			{
				OFFSET 43.500000 -0.000034 -0.000004
				CHANNELS 3 Zrotation Yrotation Xrotation
				JOINT RightFoot
				{
					OFFSET 42.372192 0.000027 -0.000002
					CHANNELS 3 Zrotation Yrotation Xrotation
					JOINT RightToe
					{
						OFFSET 17.300003 0.000001 0.000001
						CHANNELS 3 Zrotation Yrotation Xrotation
						End Site
						{
							OFFSET 0.000000 0.000000 0.000000
						}
					}
				}
			}
		}
		JOINT LeftUpLeg
		{
			OFFSET 0.103461 1.857837 -10.548502
			CHANNELS 3 Zrotation Yrotation Xrotation
			JOINT LeftLeg
			{
				OFFSET 43.500046 -0.000034 0.000013
				CHANNELS 3 Zrotation Yrotation Xrotation
				JOINT LeftFoot
				{
					OFFSET 42.372261 0.000004 0.000013
					CHANNELS 3 Zrotation Yrotation Xrotation
					JOINT LeftToe
					{
						OFFSET 17.299986 -0.000008 0.000013
						CHANNELS 3 Zrotation Yrotation Xrotation
						End Site
						{
							OFFSET 0.000000 0.000000 0.000000
						}
					}
				}
			}
		}
		JOINT Spine
		{
			OFFSET 6.901964 -2.603740 0.000003
			CHANNELS 3 Zrotation Yrotation Xrotation
			JOINT Spine1
			{
				OFFSET 12.588108 0.000020 -0.000003
				CHANNELS 3 Zrotation Yrotation Xrotation
				JOINT Spine2
				{
					OFFSET 12.343194 -0.000020 0.000000
					CHANNELS 3 Zrotation Yrotation Xrotation
					JOINT Neck
					{
						OFFSET 25.832893 -0.000004 0.000001
						CHANNELS 3 Zrotation Yrotation Xrotation
						JOINT Head
						{
							OFFSET 11.766617 0.000023 0.000000
							CHANNELS 3 Zrotation Yrotation Xrotation
							End Site
							{
								OFFSET 0.000000 0.000000 0.000000
							}
						}
					}
					JOINT RightShoulder
					{
						OFFSET 19.745911 -1.480362 6.000106
						CHANNELS 3 Zrotation Yrotation Xrotation
						JOINT RightArm
						{
							OFFSET 11.284124 -0.000010 -0.000029
							CHANNELS 3 Zrotation Yrotation Xrotation
							JOINT RightForeArm
							{
								OFFSET 33.000050 0.000006 0.000043
								CHANNELS 3 Zrotation Yrotation Xrotation
								JOINT RightHand
								{
									OFFSET 25.200006 0.000015 0.000002
									CHANNELS 3 Zrotation Yrotation Xrotation
									End Site
									{
										OFFSET 0.000000 0.000000 0.000000
									}
								}
							}
						}
					}
					JOINT LeftShoulder
					{
						OFFSET 19.746103 -1.480366 -6.000076
						CHANNELS 3 Zrotation Yrotation Xrotation
						JOINT LeftArm
						{
							OFFSET 11.284135 -0.000031 -0.000006
							CHANNELS 3 Zrotation Yrotation Xrotation
							JOINT LeftForeArm
							{
								OFFSET 33.000095 0.000024 0.000006
								CHANNELS 3 Zrotation Yrotation Xrotation
								JOINT LeftHand
								{
									OFFSET 25.199774 0.000153 0.000421
									CHANNELS 3 Zrotation Yrotation Xrotation
									End Site
									{
										OFFSET 0.000000 0.000000 0.000000
									}
								}
							}
						}
					}
				}
			}
		}
	}
}
MOTION
Frames: 9
Frame Time: 0.016667
-54.475154 0.000000 -326.567268 0.000000 85.704752 0.000000 -3.190107 88.892616 0.354254 90.056368 1.111705 178.596977 147.878785 -5.038810 174.131875 -49.701284 -3.096117 -8.707329 74.905509 4.717447 -5.672154 21.454562 0.003109 0.000016 177.407935 -1.318802 179.914682 -27.530859 3.541935 3.098551 89.184525 -2.446241 -1.441157 21.454555 -0.003109 -0.000001 9.144374 0.247133 0.488915 8.277955 0.458735 0.994233 7.959886 0.464591 0.991434 7.295630 0.130061 4.478743 -20.560416 -2.683090 5.778276 -161.108903 -70.341609 -20.831234 14.942914 64.246526 24.437053 -71.183903 -18.227306 2.803401 -5.439027 -5.027436 44.249243 -173.088904 75.848132 8.554026 -9.743983 -66.547042 -19.471634 -82.716855 9.412109 -2.642813 3.624283 -7.087881 -49.785948 
-54.373068 0.000000 -327.273061 0.000000 84.747613 0.000000 -3.214355 88.898484 0.308602 89.954074 0.663060 179.239537 148.856900 -4.280377 173.861524 -45.253405 -3.450181 -8.457679 74.732083 4.412126 -6.121701 21.454563 0.003111 0.000019 177.722901 -0.848312 179.572877 -27.520963 3.536385 3.088430 89.519079 -2.419266 -1.340349 21.454551 -0.003106 -0.000001 9.152371 0.141211 0.558107 8.293074 0.242119 1.124881 7.975046 0.248768 1.123380 7.084503 -0.239088 4.449066 -20.585348 -2.601149 5.671151 -161.626719 -70.232997 -20.298803 16.404952 64.369008 25.056582 -72.527166 -17.477336 2.809359 -5.792850 -4.712334 44.925192 -173.592797 76.161476 8.041185 -10.689942 -66.909269 -20.136930 -83.368095 8.996452 -2.638127 2.606046 -6.905564 -48.986493 
-54.266520 0.000000 -327.969213 0.000000 83.910701 0.000000 -3.144068 88.815086 0.254503 90.048505 0.415139 179.763878 149.907352 -3.544911 174.176422 -41.052650 -3.629325 -8.522687 74.305395 4.330297 -6.532636 21.454562 0.003111 0.000019 178.105201 -0.627114 179.204466 -27.913239 3.448539 3.111060 89.905909 -2.402458 -1.169985 21.454551 -0.003105 -0.000000 9.203614 0.065657 0.628869 8.394821 0.085589 1.260826 8.076822 0.093068 1.260272 6.873768 -0.437904 4.493678 -20.577285 -2.486859 5.646298 -161.902407 -70.205421 -20.014869 17.367883 64.408327 25.700111 -73.637525 -16.881757 2.812864 -5.668829 -4.642534 45.053590 -174.511074 76.339571 7.104526 -11.756875 -66.765622 -20.784289 -84.145040 8.454836 -2.636285 1.786816 -6.226953 -48.011410 
-54.155133 0.000000 -328.656898 0.000000 83.188978 0.000000 -3.025030 88.680554 0.184403 90.261085 0.234719 -179.834975 150.994491 -2.818611 174.661869 -37.410698 -3.638787 -8.820431 73.891216 4.539348 -6.504570 21.454560 0.003111 0.000018 178.456190 -0.469207 178.863508 -28.660301 3.349832 3.110132 90.276710 -2.364819 -0.963328 21.454552 -0.003105 0.000000 9.278311 -0.003552 0.686567 8.543412 -0.057689 1.370980 8.225429 -0.049536 1.371299 6.660096 -0.507813 4.602435 -20.509037 -2.408109 5.715487 -162.046378 -70.196375 -19.866501 17.838516 64.341296 26.192468 -74.560478 -16.377174 2.816040 -5.435615 -4.775567 44.886186 -175.834054 76.420759 5.754146 -12.964709 -66.207321 -21.365051 -84.960151 7.879701 -2.633819 1.075046 -5.404573 -47.024123 
-54.038527 0.000000 -329.337291 0.000000 82.577444 0.000000 -2.903209 88.533020 0.093817 90.506780 -0.006296 -179.561539 152.072153 -2.072296 174.903646 -34.647588 -3.501649 -9.275647 73.762716 5.112184 -5.636480 21.454558 0.003115 0.000018 178.675358 -0.190393 178.605581 -29.714679 3.310153 3.028045 90.563356 -2.274477 -0.753354 21.454553 -0.003102 0.000000 9.356659 -0.090351 0.716578 8.699034 -0.234202 1.424327 8.381051 -0.225722 1.425716 6.440536 -0.490295 4.765496 -20.353614 -2.433125 5.890355 -162.164509 -70.142420 -19.745301 17.829171 64.144804 26.364365 -75.340196 -15.900289 2.816772 -5.458747 -5.067480 44.673695 -177.547489 76.441553 4.004709 -14.324996 -65.324658 -21.838458 -85.726455 7.363551 -2.631372 0.363236 -4.792215 -46.178358 
-53.916323 0.000000 -330.011563 0.000000 82.071208 0.000000 -2.806982 88.386355 -0.016911 90.733161 -0.379863 -179.413168 153.056121 -1.296691 174.627935 -33.075773 -3.245302 -9.804987 74.148616 6.022842 -3.781471 21.454557 0.003122 0.000019 178.672114 0.316496 178.487038 -31.109424 3.361875 2.821656 90.717666 -2.107883 -0.568149 21.454553 -0.003096 -0.000001 9.426719 -0.207965 0.709871 8.837804 -0.469426 1.401790 8.519799 -0.461086 1.404595 6.224796 -0.430724 4.972946 -20.117226 -2.595642 6.168330 -162.370130 -69.998797 -19.534874 17.368491 63.805228 26.098705 -76.001527 -15.410050 2.811214 -5.963256 -5.452294 44.598836 -179.610612 76.430078 1.897983 -15.806161 -64.209488 -22.189784 -86.382191 6.971719 -2.632382 -0.433947 -4.622642 -45.594606 
-53.788143 0.000000 -330.680889 0.000000 81.665536 0.000000 -2.694021 88.157379 -0.136425 91.033286 -0.746755 -179.357088 153.749115 -0.622807 174.117190 -32.965429 -2.855675 -10.261890 75.008617 6.885471 -1.846664 21.454557 0.003122 0.000019 178.400361 0.855096 178.565051 -33.198881 3.395562 2.517425 90.770556 -1.877946 -0.416418 21.454553 -0.003090 -0.000001 9.507934 -0.327055 0.679802 8.999089 -0.705885 1.332130 8.681054 -0.697967 1.336357 6.072737 -0.390127 5.213809 -19.936031 -2.788717 6.492639 -162.811710 -69.796368 -19.081526 16.514671 63.354319 25.451012 -76.495427 -14.953818 2.799889 -6.606168 -5.764319 44.554607 178.142385 76.388633 -0.396862 -17.239939 -62.964247 -22.473756 -86.964624 6.661053 -2.636757 -1.260454 -4.644361 -45.288456 
-53.653608 0.000000 -331.346443 0.000000 81.355880 0.000000 -2.524579 87.772554 -0.256154 91.499010 -1.000545 -179.362693 154.020682 -0.168442 173.717117 -34.369585 -2.382133 -10.540266 76.179948 7.354802 -0.773208 21.454557 0.003108 0.000018 177.823128 1.257704 178.898614 -36.299658 3.275569 2.147569 90.690808 -1.600804 -0.304655 21.454553 -0.003090 0.000000 9.619040 -0.425701 0.639798 9.220614 -0.900938 1.243672 8.902554 -0.893544 1.249074 6.043657 -0.404548 5.475856 -19.927732 -2.909076 6.810903 -163.561542 -69.591346 -18.309712 15.325783 62.836472 24.542868 -76.768750 -14.608783 2.787142 -6.992544 -5.858401 44.370399 175.884801 76.307391 -2.703335 -18.489510 -61.680885 -22.729385 -87.514267 6.385921 -2.642149 -2.028358 -4.552001 -45.236029 
-53.512339 0.000000 -332.009397 0.000000 81.137890 0.000000 -2.341169 87.293953 -0.383840 92.061755 -1.369558 -179.439577 154.078097 0.199209 173.498198 -36.518131 -2.161263 -10.717725 77.478345 7.514071 -0.520425 21.454557 0.003096 0.000017 176.892815 1.769098 179.549636 -40.258223 2.911484 1.678789 90.120281 -1.267295 -0.251546 21.454553 -0.003090 0.000002 9.744902 -0.554151 0.581128 9.471821 -1.153917 1.114991 9.153720 -1.147290 1.121926 6.146292 -0.392475 5.741696 -20.011710 -3.015870 7.136511 -164.377517 -69.473642 -17.468363 13.826108 62.307367 23.583845 -76.824088 -14.483339 2.780942 -7.097076 -5.765220 43.941925 173.702296 76.136646 -4.935642 -19.596486 -60.397517 -22.955088 -87.986708 6.198957 -2.649551 -2.693146 -4.302835 -45.328444 
